<svg width="250" height="250" viewBox="0 0 250 250" fill="none" xmlns="http://www.w3.org/2000/svg">
<g clip-path="url(#clip0_5272_3019)">
<rect width="250" height="250" rx="20" fill="white"/>
<path d="M192.16 68.72V71.92C188.533 72.0267 185.813 72.4533 184 73.2C182.187 73.84 180.96 75.12 180.32 77.04C179.787 78.8533 179.52 81.7333 179.52 85.68V165.04C179.52 168.88 179.787 171.76 180.32 173.68C180.96 175.6 182.187 176.88 184 177.52C185.813 178.16 188.533 178.587 192.16 178.8V182C189.493 181.787 186.187 181.68 182.24 181.68C178.293 181.573 174.293 181.52 170.24 181.52C165.76 181.52 161.547 181.573 157.6 181.68C153.653 181.68 150.507 181.787 148.16 182V178.8C151.787 178.587 154.507 178.16 156.32 177.52C158.24 176.88 159.52 175.6 160.16 173.68C160.8 171.76 161.12 168.88 161.12 165.04V77.52L161.92 77.84L122.56 182.64H120L78.72 78.96V160.88C78.72 165.36 79.04 168.88 79.68 171.44C80.32 173.893 81.7067 175.653 83.84 176.72C85.9733 177.787 89.2267 178.48 93.6 178.8V182C91.5733 181.787 88.96 181.68 85.76 181.68C82.6667 181.573 79.7333 181.52 76.96 181.52C74.2933 181.52 71.6267 181.573 68.96 181.68C66.2933 181.68 64.1067 181.787 62.4 182V178.8C65.92 178.48 68.5867 177.84 70.4 176.88C72.2133 175.813 73.44 174.053 74.08 171.6C74.72 169.147 75.04 165.787 75.04 161.52V85.68C75.04 81.7333 74.72 78.8533 74.08 77.04C73.44 75.12 72.2133 73.84 70.4 73.2C68.5867 72.4533 65.92 72.0267 62.4 71.92V68.72C64.1067 68.8267 66.2933 68.9333 68.96 69.04C71.6267 69.1467 74.2933 69.2 76.96 69.2C80.0533 69.2 83.1467 69.1467 86.24 69.04C89.44 68.9333 92.16 68.8267 94.4 68.72L129.76 159.6L126.72 161.68L161.44 69.2C162.827 69.2 164.267 69.2 165.76 69.2C167.253 69.2 168.747 69.2 170.24 69.2C174.293 69.2 178.293 69.1467 182.24 69.04C186.187 68.9333 189.493 68.8267 192.16 68.72Z" fill="#A4D8CC"/>
<path d="M189.16 67.72V70.92C185.533 71.0267 182.813 71.4533 181 72.2C179.187 72.84 177.96 74.12 177.32 76.04C176.787 77.8533 176.52 80.7333 176.52 84.68V164.04C176.52 167.88 176.787 170.76 177.32 172.68C177.96 174.6 179.187 175.88 181 176.52C182.813 177.16 185.533 177.587 189.16 177.8V181C186.493 180.787 183.187 180.68 179.24 180.68C175.293 180.573 171.293 180.52 167.24 180.52C162.76 180.52 158.547 180.573 154.6 180.68C150.653 180.68 147.507 180.787 145.16 181V177.8C148.787 177.587 151.507 177.16 153.32 176.52C155.24 175.88 156.52 174.6 157.16 172.68C157.8 170.76 158.12 167.88 158.12 164.04V76.52L158.92 76.84L119.56 181.64H117L75.72 77.96V159.88C75.72 164.36 76.04 167.88 76.68 170.44C77.32 172.893 78.7067 174.653 80.84 175.72C82.9733 176.787 86.2267 177.48 90.6 177.8V181C88.5733 180.787 85.96 180.68 82.76 180.68C79.6667 180.573 76.7333 180.52 73.96 180.52C71.2933 180.52 68.6267 180.573 65.96 180.68C63.2933 180.68 61.1067 180.787 59.4 181V177.8C62.92 177.48 65.5867 176.84 67.4 175.88C69.2133 174.813 70.44 173.053 71.08 170.6C71.72 168.147 72.04 164.787 72.04 160.52V84.68C72.04 80.7333 71.72 77.8533 71.08 76.04C70.44 74.12 69.2133 72.84 67.4 72.2C65.5867 71.4533 62.92 71.0267 59.4 70.92V67.72C61.1067 67.8267 63.2933 67.9333 65.96 68.04C68.6267 68.1467 71.2933 68.2 73.96 68.2C77.0533 68.2 80.1467 68.1467 83.24 68.04C86.44 67.9333 89.16 67.8267 91.4 67.72L126.76 158.6L123.72 160.68L158.44 68.2C159.827 68.2 161.267 68.2 162.76 68.2C164.253 68.2 165.747 68.2 167.24 68.2C171.293 68.2 175.293 68.1467 179.24 68.04C183.187 67.9333 186.493 67.8267 189.16 67.72Z" fill="#294A42"/>
</g>
<defs>
<clipPath id="clip0_5272_3019">
<rect width="250" height="250" fill="white"/>
</clipPath>
</defs>
</svg>
